<svg width="30" height="31" viewBox="0 0 30 31" fill="none" xmlns="http://www.w3.org/2000/svg">
<path d="M15.0051 7.30103C10.7514 7.30103 7.30762 10.7485 7.30762 14.9984C7.30762 19.252 10.7551 22.6957 15.0051 22.6957C19.2588 22.6957 22.7026 19.2483 22.7026 14.9984C22.7026 10.7447 19.2551 7.30103 15.0051 7.30103ZM15.0051 19.9945C12.2439 19.9945 10.0089 17.7583 10.0089 14.9984C10.0089 12.2384 12.2451 10.0022 15.0051 10.0022C17.7651 10.0022 20.0013 12.2384 20.0013 14.9984C20.0026 17.7583 17.7663 19.9945 15.0051 19.9945Z" fill="#8D8D8D"/>
<path d="M21.1853 0.0986262C18.4253 -0.0301215 11.589 -0.0238716 8.82654 0.0986262C6.39904 0.212374 4.25779 0.798614 2.53153 2.52483C-0.353466 5.40978 0.0152841 9.29721 0.0152841 14.9984C0.0152841 20.8333 -0.309716 24.6307 2.53153 27.4719C5.42779 30.3668 9.37154 29.9881 15.0053 29.9881C20.7853 29.9881 22.7803 29.9918 24.824 29.2006C27.6028 28.1219 29.7003 25.6382 29.9053 21.177C30.0353 18.4158 30.0278 11.5809 29.9053 8.81847C29.6578 3.55232 26.8315 0.358622 21.1853 0.0986262ZM25.554 25.5632C23.6628 27.4544 21.039 27.2856 14.969 27.2856C8.71904 27.2856 6.21279 27.3781 4.38404 25.5444C2.27778 23.4482 2.65903 20.082 2.65903 14.9784C2.65903 8.07224 1.95028 3.09857 8.88154 2.74358C10.474 2.68733 10.9428 2.66858 14.9515 2.66858L15.0078 2.70608C21.669 2.70608 26.8953 2.00859 27.209 8.93847C27.2803 10.5197 27.2965 10.9947 27.2965 14.9971C27.2953 21.1745 27.4128 23.6957 25.554 25.5632Z" fill="#8D8D8D"/>
<path d="M23.0077 8.79556C24.0011 8.79556 24.8064 7.99027 24.8064 6.9969C24.8064 6.00353 24.0011 5.19824 23.0077 5.19824C22.0143 5.19824 21.209 6.00353 21.209 6.9969C21.209 7.99027 22.0143 8.79556 23.0077 8.79556Z" fill="#8D8D8D"/>
</svg>
