<svg width="30" height="30" viewBox="0 0 30 30" fill="none" xmlns="http://www.w3.org/2000/svg">
<rect x="1.25" y="1.25" width="27.5" height="27.5" rx="8.75" stroke="#8D8D8D" stroke-width="2.5"/>
<path d="M9.31853 7.5C10.4186 7.5 11.0962 8.25548 11.1171 9.24856C11.1171 10.2197 10.4186 10.9964 9.29725 10.9964H9.27661C8.19749 10.9964 7.5 10.2198 7.5 9.24856C7.5 8.25551 8.21862 7.5 9.31853 7.5ZM18.7984 12.1415C20.914 12.1415 22.5 13.5881 22.5 16.6967V22.5H19.2848V17.0858C19.2848 15.7253 18.8195 14.797 17.6559 14.797C16.7677 14.797 16.2382 15.4227 16.0058 16.027C15.9208 16.2433 15.9 16.5452 15.9 16.8477V22.5H12.6848C12.6848 22.5 12.727 13.3285 12.6848 12.3789H15.9006V13.8121C16.3279 13.1225 17.0921 12.1415 18.7984 12.1415ZM7.68965 12.3796H10.9048V22.5H7.68965V12.3796Z" fill="#8D8D8D"/>
</svg>
